HIERARCHY
ROOT Hips
{
  OFFSET 5.72205e-005 65.662 3.42586
  CHANNELS 6 Xposition Yposition Zposition Zrotation Xrotation Yrotation
  JOINT Chest
  {
    OFFSET 0 8.7983 -4.7612
    CHANNELS 6 Xposition Yposition Zposition Zrotation Xrotation Yrotation
    JOINT Chest2
    {
      OFFSET 0 8.0291 0.4195
      CHANNELS 6 Xposition Yposition Zposition Zrotation Xrotation Yrotation
      JOINT Chest3
      {
        OFFSET 0 9.9351 -2.2114
        CHANNELS 6 Xposition Yposition Zposition Zrotation Xrotation Yrotation
        JOINT Neck
        {
          OFFSET 0 22.3885 -0.4656
          CHANNELS 6 Xposition Yposition Zposition Zrotation Xrotation Yrotation
          JOINT Head
          {
            OFFSET -0.0001 12.643 3.4389
            CHANNELS 6 Xposition Yposition Zposition Zrotation Xrotation Yrotation
            End Site
            {
              OFFSET 0.0001 17.6655 0.5274
            }
          }
        }
        JOINT LeftCollar
        {
          OFFSET 2.2603 21.606 7.4023
          CHANNELS 6 Xposition Yposition Zposition Zrotation Xrotation Yrotation
          JOINT LeftShoulder
          {
            OFFSET 13.5163 -1.1332 -5.0146
            CHANNELS 6 Xposition Yposition Zposition Zrotation Xrotation Yrotation
            JOINT LeftElbow
            {
              OFFSET -0.0995 -28.05 -0.2431
              CHANNELS 6 Xposition Yposition Zposition Zrotation Xrotation Yrotation
              JOINT LeftWrist
              {
                OFFSET 0.0679 -23.3996 -0.1402
                CHANNELS 6 Xposition Yposition Zposition Zrotation Xrotation Yrotation
                JOINT LeftFinger1
                {
                  OFFSET 0.7932 -9.069 2.5189
                  CHANNELS 6 Xposition Yposition Zposition Zrotation Xrotation Yrotation
                  JOINT LeftFinger11
                  {
                    OFFSET -0.8272 -3.3923 0.5977
                    CHANNELS 6 Xposition Yposition Zposition Zrotation Xrotation Yrotation
                    JOINT LeftFinger12
                    {
                      OFFSET -0.5649 -2.3158 0.4082
                      CHANNELS 6 Xposition Yposition Zposition Zrotation Xrotation Yrotation
                      End Site
                      {
                        OFFSET -0.4919 -1.6479 0.2673
                      }
                    }
                  }
                }
                JOINT LeftFinger2
                {
                  OFFSET 0.9159 -9.2044 0.2193
                  CHANNELS 6 Xposition Yposition Zposition Zrotation Xrotation Yrotation
                  JOINT LeftFinger21
                  {
                    OFFSET 0.0117 -4.1944 -0.0248
                    CHANNELS 6 Xposition Yposition Zposition Zrotation Xrotation Yrotation
                    JOINT LeftFinger22
                    {
                      OFFSET 0.0071 -2.3249 -0.0142
                      CHANNELS 6 Xposition Yposition Zposition Zrotation Xrotation Yrotation
                      End Site
                      {
                        OFFSET -0.1475 -2.0882 0.0028
                      }
                    }
                  }
                }
                JOINT LeftFinger3
                {
                  OFFSET 0.6113 -8.7231 -2.0637
                  CHANNELS 6 Xposition Yposition Zposition Zrotation Xrotation Yrotation
                  JOINT LeftFinger31
                  {
                    OFFSET -0.1927 -3.8059 -0.2383
                    CHANNELS 6 Xposition Yposition Zposition Zrotation Xrotation Yrotation
                    JOINT LeftFinger32
                    {
                      OFFSET -0.1091 -2.1688 -0.1362
                      CHANNELS 6 Xposition Yposition Zposition Zrotation Xrotation Yrotation
                      End Site
                      {
                        OFFSET -0.2358 -1.9176 -0.0906
                      }
                    }
                  }
                }
                JOINT LeftFinger4
                {
                  OFFSET -0.6151 -8.0947 -3.5641
                  CHANNELS 6 Xposition Yposition Zposition Zrotation Xrotation Yrotation
                  JOINT LeftFinger41
                  {
                    OFFSET -0.4882 -2.341 -0.6462
                    CHANNELS 6 Xposition Yposition Zposition Zrotation Xrotation Yrotation
                    JOINT LeftFinger42
                    {
                      OFFSET -0.3575 -1.7167 -0.4742
                      CHANNELS 6 Xposition Yposition Zposition Zrotation Xrotation Yrotation
                      End Site
                      {
                        OFFSET -0.4187 -1.5237 -0.3496
                      }
                    }
                  }
                }
                JOINT LeftFinger0
                {
                  OFFSET -1.42 -1.8761 1.4223
                  CHANNELS 6 Xposition Yposition Zposition Zrotation Xrotation Yrotation
                  JOINT LeftFinger01
                  {
                    OFFSET -1.1471 -3.4929 2.6334
                    CHANNELS 6 Xposition Yposition Zposition Zrotation Xrotation Yrotation
                    JOINT LeftFinger02
                    {
                      OFFSET -0.823 -2.3 1.6571
                      CHANNELS 6 Xposition Yposition Zposition Zrotation Xrotation Yrotation
                      End Site
                      {
                        OFFSET -0.5822 -1.6914 1.1582
                      }
                    }
                  }
                }
              }
            }
          }
        }
        JOINT RightCollar
        {
          OFFSET -2.2603 21.606 7.4023
          CHANNELS 6 Xposition Yposition Zposition Zrotation Xrotation Yrotation
          JOINT RightShoulder
          {
            OFFSET -13.5187 -1.1334 -5.0155
            CHANNELS 6 Xposition Yposition Zposition Zrotation Xrotation Yrotation
            JOINT RightElbow
            {
              OFFSET 0.0994 -28.0499 -0.2431
              CHANNELS 6 Xposition Yposition Zposition Zrotation Xrotation Yrotation
              JOINT RightWrist
              {
                OFFSET -0.0679 -23.3996 -0.1402
                CHANNELS 6 Xposition Yposition Zposition Zrotation Xrotation Yrotation
                JOINT RightFinger1
                {
                  OFFSET -0.7932 -9.0691 2.5189
                  CHANNELS 6 Xposition Yposition Zposition Zrotation Xrotation Yrotation
                  JOINT RightFinger11
                  {
                    OFFSET 0.8272 -3.3923 0.5977
                    CHANNELS 6 Xposition Yposition Zposition Zrotation Xrotation Yrotation
                    JOINT RightFinger12
                    {
                      OFFSET 0.565 -2.3158 0.4082
                      CHANNELS 6 Xposition Yposition Zposition Zrotation Xrotation Yrotation
                      End Site
                      {
                        OFFSET 0.4919 -1.6479 0.2673
                      }
                    }
                  }
                }
                JOINT RightFinger2
                {
                  OFFSET -0.916 -9.2044 0.2193
                  CHANNELS 6 Xposition Yposition Zposition Zrotation Xrotation Yrotation
                  JOINT RightFinger21
                  {
                    OFFSET -0.0117 -4.1944 -0.0248
                    CHANNELS 6 Xposition Yposition Zposition Zrotation Xrotation Yrotation
                    JOINT RightFinger22
                    {
                      OFFSET -0.0071 -2.3249 -0.0142
                      CHANNELS 6 Xposition Yposition Zposition Zrotation Xrotation Yrotation
                      End Site
                      {
                        OFFSET 0.1475 -2.0882 0.0028
                      }
                    }
                  }
                }
                JOINT RightFinger3
                {
                  OFFSET -0.6113 -8.7231 -2.0637
                  CHANNELS 6 Xposition Yposition Zposition Zrotation Xrotation Yrotation
                  JOINT RightFinger31
                  {
                    OFFSET 0.1927 -3.8059 -0.2383
                    CHANNELS 6 Xposition Yposition Zposition Zrotation Xrotation Yrotation
                    JOINT RightFinger32
                    {
                      OFFSET 0.1091 -2.1688 -0.1362
                      CHANNELS 6 Xposition Yposition Zposition Zrotation Xrotation Yrotation
                      End Site
                      {
                        OFFSET 0.2358 -1.9176 -0.0906
                      }
                    }
                  }
                }
                JOINT RightFinger4
                {
                  OFFSET 0.6151 -8.0947 -3.564
                  CHANNELS 6 Xposition Yposition Zposition Zrotation Xrotation Yrotation
                  JOINT RightFinger41
                  {
                    OFFSET 0.4882 -2.341 -0.6462
                    CHANNELS 6 Xposition Yposition Zposition Zrotation Xrotation Yrotation
                    JOINT RightFinger42
                    {
                      OFFSET 0.3574 -1.7166 -0.4742
                      CHANNELS 6 Xposition Yposition Zposition Zrotation Xrotation Yrotation
                      End Site
                      {
                        OFFSET 0.4187 -1.5237 -0.3496
                      }
                    }
                  }
                }
                JOINT RightFinger0
                {
                  OFFSET 1.4199 -1.8761 1.4221
                  CHANNELS 6 Xposition Yposition Zposition Zrotation Xrotation Yrotation
                  JOINT RightFinger01
                  {
                    OFFSET 1.1472 -3.4929 2.6336
                    CHANNELS 6 Xposition Yposition Zposition Zrotation Xrotation Yrotation
                    JOINT RightFinger02
                    {
                      OFFSET 0.8229 -2.3 1.6571
                      CHANNELS 6 Xposition Yposition Zposition Zrotation Xrotation Yrotation
                      End Site
                      {
                        OFFSET 0.5822 -1.6914 1.1582
                      }
                    }
                  }
                }
              }
            }
          }
        }
      }
    }
  }
  JOINT RightHip
  {
    OFFSET -9.412 3.9771 -0.7758
    CHANNELS 6 Xposition Yposition Zposition Zrotation Xrotation Yrotation
    JOINT RightKnee
    {
      OFFSET -0.7531 -40.938 0
      CHANNELS 6 Xposition Yposition Zposition Zrotation Xrotation Yrotation
      JOINT RightAnkle
      {
        OFFSET 0 -40.1986 0
        CHANNELS 6 Xposition Yposition Zposition Zrotation Xrotation Yrotation
        JOINT RightToe
        {
          OFFSET 0 -4.4182 9.239
          CHANNELS 6 Xposition Yposition Zposition Zrotation Xrotation Yrotation
          End Site
          {
            OFFSET 0 0 6.1981
          }
        }
      }
    }
  }
  JOINT LeftHip
  {
    OFFSET 9.4119 3.9773 -0.7758
    CHANNELS 6 Xposition Yposition Zposition Zrotation Xrotation Yrotation
    JOINT LeftKnee
    {
      OFFSET 0.7532 -40.9383 0
      CHANNELS 6 Xposition Yposition Zposition Zrotation Xrotation Yrotation
      JOINT LeftAnkle
      {
        OFFSET 0 -40.1986 0
        CHANNELS 6 Xposition Yposition Zposition Zrotation Xrotation Yrotation
        JOINT LeftToe
        {
          OFFSET 0 -4.4182 9.239
          CHANNELS 6 Xposition Yposition Zposition Zrotation Xrotation Yrotation
          End Site
          {
            OFFSET 0 0 6.1981
          }
        }
      }
    }
  }
}
MOTION
Frames:	4
Frame Time:	0.0333333
34.8263 27.6577 16.9822 92.8372 89.9863 135.156 -7.10543e-015 8.7983 -4.7612 8.76964 4.01391 3.56438 1.42109e-014 8.0291 0.4195 17.3437 8.51891 6.49835 0 9.9351 -2.2114 17.3437 8.51892 6.49835 7.10543e-015 22.3885 -0.4656 16.0221 -0.00242199 -7.00169 -0.0001 12.643 3.4389 7.18258 -0.440473 -28.0609 2.2603 21.606 7.4023 -1.22226 3.32507 22.3248 13.5163 -1.1332 -5.0146 75.129 -12.4719 -22.8689 -0.0995 -28.05 -0.2431 67.67 -53.2357 42.3445 0.0679 -23.3996 -0.1402 -4.27404 2.70276 -10.899 0.7932 -9.069 2.5189 1.59028e-015 -3.18055e-015 -3.18055e-015 -0.8272 -3.3923 0.5977 -2.64834e-031 -1.59028e-015 -9.54166e-015 -0.5649 -2.3158 0.4082 7.95139e-016 -3.18055e-015 -3.18055e-015 0.9159 -9.2044 0.2193 1.59028e-015 -3.18055e-015 -3.18055e-015 0.0117 -4.1944 -0.0248 -0.0128145 0.00232637 8.52114e-005 0.0071 -2.3249 -0.0142 9.54166e-015 -3.18055e-015 6.36111e-015 0.6113 -8.7231 -2.0637 1.59028e-015 -3.18055e-015 -3.18055e-015 -0.1927 -3.8059 -0.2383 -0.0160464 0.00299454 0.000855105 -0.1091 -2.1688 -0.1362 7.95139e-016 1.59028e-015 6.36111e-015 -0.6151 -8.0947 -3.5641 1.59028e-015 -3.18055e-015 -3.18055e-015 -0.4882 -2.341 -0.6462 -0.012628 0.00313072 0.00283235 -0.3575 -1.7167 -0.4742 1.59028e-015 3.18055e-015 6.36111e-015 -1.42 -1.8761 1.4223 1.59028e-015 -3.18055e-015 -3.18055e-015 -1.1471 -3.4929 2.6334 -2.64834e-031 -1.59028e-015 -9.54166e-015 -0.823 -2.3 1.6571 7.95139e-016 -3.18055e-015 -3.18055e-015 -2.2603 21.606 7.4023 22.3407 6.58534 26.5623 -13.5187 -1.1334 -5.0155 -51.1838 24.1685 -72.3562 0.0994 -28.0499 -0.2431 0.794642 -1.51451 -15.2522 -0.0679 -23.3996 -0.1402 29.6961 9.34259 -2.77449 -0.7932 -9.0691 2.5189 1.00171e-006 8.85533e-006 1.54498e-006 0.8272 -3.3923 0.5977 -3.18055e-015 3.18055e-015 3.18055e-015 0.565 -2.3158 0.4082 2.00343e-006 9.47801e-007 3.08996e-006 -0.916 -9.2044 0.2193 1.00171e-006 8.85533e-006 1.54498e-006 -0.0117 -4.1944 -0.0248 0.0128929 0.00229662 -8.18052e-005 -0.0071 -2.3249 -0.0142 1.72757e-006 -1.38582e-006 2.61515e-006 -0.6113 -8.7231 -2.0637 1.00171e-006 8.85533e-006 1.54498e-006 0.1927 -3.8059 -0.2383 0.0163126 0.00303139 -0.000872392 0.1091 -2.1688 -0.1362 8.45565e-006 -6.55396e-007 6.10601e-006 0.6151 -8.0947 -3.564 1.00171e-006 8.85533e-006 1.54498e-006 0.4882 -2.341 -0.6462 0.0145421 0.00365966 -0.00324723 0.3574 -1.7166 -0.4742 1.00149e-006 6.94867e-006 1.54507e-006 1.4199 -1.8761 1.4221 1.00171e-006 8.85533e-006 1.54498e-006 1.1472 -3.4929 2.6336 -3.18055e-015 3.18055e-015 3.18055e-015 0.8229 -2.3 1.6571 2.00343e-006 9.47801e-007 3.08996e-006 -9.412 3.9771 -0.7758 141.168 -33.6676 156.392 -0.7531 -40.938 -3.55271e-015 84.8804 47.543 -84.4346 0 -40.1986 -7.10543e-015 4.02041 5.74704 6.23697 0 -4.4182 9.239 -3.25586e-006 2.07079e-006 -5.29167e-006 9.4119 3.9773 -0.7758 127.002 -46.0409 128.743 0.7532 -40.9383 3.55271e-015 44.0825 69.4075 -40.7316 3.55271e-015 -40.1986 0 -16.3856 5.63139 7.2578 -3.55271e-015 -4.4182 9.239 -3.63615e-006 -1.65342e-006 6.49189e-006 
34.8259 27.6581 16.8654 92.8372 89.9863 135.156 1.42109e-014 8.7983 -4.7612 8.68913 3.99651 3.58164 -7.10543e-015 8.0291 0.4195 17.1813 8.48271 6.5417 0 9.9351 -2.2114 17.1813 8.48273 6.54171 3.55271e-015 22.3885 -0.4656 16.2085 -0.00244115 -7.0017 -0.0001 12.643 3.4389 7.36014 -0.470645 -28.2354 2.2603 21.606 7.4023 -0.600655 3.18195 22.485 13.5163 -1.1332 -5.0146 75.129 -12.4719 -22.8689 -0.0995 -28.05 -0.2431 68.003 -53.3279 42.6078 0.0679 -23.3996 -0.1402 -4.54975 2.736 -10.7846 0.7932 -9.069 2.5189 1.59028e-015 0 6.36111e-015 -0.8272 -3.3923 0.5977 1.59028e-015 -4.77083e-015 9.54166e-015 -0.5649 -2.3158 0.4082 2.38542e-015 -1.59028e-015 9.54166e-015 0.9159 -9.2044 0.2193 1.59028e-015 0 6.36111e-015 0.0117 -4.1944 -0.0248 -0.012806 0.00231696 8.27644e-005 0.0071 -2.3249 -0.0142 -9.43597e-006 3.97513e-006 -5.57427e-007 0.6113 -8.7231 -2.0637 1.59028e-015 0 6.36111e-015 -0.1927 -3.8059 -0.2383 -0.0160736 0.00299842 0.000854566 -0.1091 -2.1688 -0.1362 -0 -7.95139e-015 -0 -0.6151 -8.0947 -3.5641 1.59028e-015 0 6.36111e-015 -0.4882 -2.341 -0.6462 -0.0126021 0.00312437 0.0028261 -0.3575 -1.7167 -0.4742 7.95139e-016 1.59028e-015 -6.36111e-015 -1.42 -1.8761 1.4223 1.59028e-015 0 6.36111e-015 -1.1471 -3.4929 2.6334 1.59028e-015 -4.77083e-015 9.54166e-015 -0.823 -2.3 1.6571 2.38542e-015 -1.59028e-015 9.54166e-015 -2.2603 21.606 7.4023 22.6178 6.58456 26.5531 -13.5187 -1.1334 -5.0155 -51.1837 24.1686 -72.3562 0.0994 -28.0499 -0.2431 0.794725 -1.51454 -15.2522 -0.0679 -23.3996 -0.1402 29.6961 9.34256 -2.77448 -0.7932 -9.0691 2.5189 2.01059e-006 -5.09453e-009 3.08527e-006 0.8272 -3.3923 0.5977 -3.18055e-015 6.36111e-015 -3.18055e-015 0.565 -2.3158 0.4082 4.13761e-006 9.23931e-007 4.94621e-006 -0.916 -9.2044 0.2193 2.01059e-006 -5.09453e-009 3.08527e-006 -0.0117 -4.1944 -0.0248 0.0129605 0.00232046 -8.79601e-005 -0.0071 -2.3249 -0.0142 -7.95462e-007 8.95056e-006 1.50544e-006 -0.6113 -8.7231 -2.0637 2.01059e-006 -5.09453e-009 3.08527e-006 0.1927 -3.8059 -0.2383 0.0163531 0.00303797 -0.000868452 0.1091 -2.1688 -0.1362 1.40281e-006 4.45955e-007 7.8998e-007 0.6151 -8.0947 -3.564 2.01059e-006 -5.09453e-009 3.08527e-006 0.4882 -2.341 -0.6462 0.0146105 0.00369396 -0.00326896 0.3574 -1.7166 -0.4742 2.80563e-006 4.45935e-007 1.58004e-006 1.4199 -1.8761 1.4221 2.01059e-006 -5.09453e-009 3.08527e-006 1.1472 -3.4929 2.6336 -3.18055e-015 6.36111e-015 -3.18055e-015 0.8229 -2.3 1.6571 4.13761e-006 9.23931e-007 4.94621e-006 -9.412 3.9771 -0.7758 141.416 -33.8293 156.274 -0.7531 -40.938 -3.55271e-015 84.9009 47.5441 -84.4602 3.55271e-015 -40.1986 0 3.73313 5.88123 6.48478 3.55271e-015 -4.4182 9.239 -2.91014e-006 -1.59772e-006 4.54844e-006 9.4119 3.9773 -0.7758 127.228 -46.0771 128.773 0.7532 -40.9383 0 44.1056 69.4154 -40.755 0 -40.1986 0 -16.5076 5.68081 7.40655 0 -4.4182 9.239 -2.26338e-006 -7.21342e-007 5.5884e-006 
34.8255 27.6585 16.7485 92.8372 89.9863 135.156 7.10543e-015 8.7983 -4.7612 8.60865 3.97909 3.5989 0 8.0291 0.4195 17.0189 8.44643 6.585 3.55271e-015 9.9351 -2.2114 17.019 8.44646 6.58498 3.55271e-015 22.3885 -0.4656 16.3949 -0.00244107 -7.00167 -0.0001 12.643 3.4389 7.53751 -0.501338 -28.4096 2.2603 21.606 7.4023 0.0212027 3.0406 22.6467 13.5163 -1.1332 -5.0146 75.129 -12.4719 -22.8689 -0.0995 -28.05 -0.2431 68.3375 -53.4191 42.8725 0.0679 -23.3996 -0.1402 -4.82553 2.76867 -10.6699 0.7932 -9.069 2.5189 2.38542e-015 -1.51819e-006 -3.18055e-015 -0.8272 -3.3923 0.5977 -1.59028e-015 -5.61796e-008 -0 -0.5649 -2.3158 0.4082 -4.48034e-007 -5.61796e-008 1.54858e-006 0.9159 -9.2044 0.2193 2.38542e-015 -1.51819e-006 -3.18055e-015 0.0117 -4.1944 -0.0248 -0.0128112 0.00232709 8.5407e-005 0.0071 -2.3249 -0.0142 -7.95139e-016 -1.59028e-015 -3.18055e-015 0.6113 -8.7231 -2.0637 2.38542e-015 -1.51819e-006 -3.18055e-015 -0.1927 -3.8059 -0.2383 -0.0160867 0.00300499 0.000854103 -0.1091 -2.1688 -0.1362 3.18055e-015 0 -3.18055e-015 -0.6151 -8.0947 -3.5641 2.38542e-015 -1.51819e-006 -3.18055e-015 -0.4882 -2.341 -0.6462 -0.0125842 0.00312102 0.00282157 -0.3575 -1.7167 -0.4742 8.9599e-007 -3.67774e-007 -3.09706e-006 -1.42 -1.8761 1.4223 2.38542e-015 -1.51819e-006 -3.18055e-015 -1.1471 -3.4929 2.6334 -1.59028e-015 -5.61796e-008 -0 -0.823 -2.3 1.6571 -4.48034e-007 -5.61796e-008 1.54858e-006 -2.2603 21.606 7.4023 22.8951 6.58377 26.544 -13.5187 -1.1334 -5.0155 -51.1838 24.1685 -72.3562 0.0994 -28.0499 -0.2431 0.794666 -1.51448 -15.2522 -0.0679 -23.3996 -0.1402 29.6961 9.34258 -2.77447 -0.7932 -9.0691 2.5189 -1.00887e-006 -8.82e-006 -1.54028e-006 0.8272 -3.3923 0.5977 -1.3693e-005 -5.46272e-006 6.29792e-006 0.565 -2.3158 0.4082 -1.00887e-006 -2.3218e-007 -1.54028e-006 -0.916 -9.2044 0.2193 -1.00887e-006 -8.82e-006 -1.54028e-006 -0.0117 -4.1944 -0.0248 0.0129082 0.00230405 -8.94627e-005 -0.0071 -2.3249 -0.0142 1.58525e-006 -5.87853e-007 -3.0142e-006 -0.6113 -8.7231 -2.0637 -1.00887e-006 -8.82e-006 -1.54028e-006 0.1927 -3.8059 -0.2383 0.0163862 0.00303348 -0.000876002 0.1091 -2.1688 -0.1362 -2.4136e-006 -2.32397e-007 -2.32714e-006 0.6151 -8.0947 -3.564 -1.00887e-006 -8.82e-006 -1.54028e-006 0.4882 -2.341 -0.6462 0.0145803 0.00366646 -0.00326726 0.3574 -1.7166 -0.4742 -5.33467e-006 -7.33063e-006 -2.67884e-006 1.4199 -1.8761 1.4221 -1.00887e-006 -8.82e-006 -1.54028e-006 1.1472 -3.4929 2.6336 -1.3693e-005 -5.46272e-006 6.29792e-006 0.8229 -2.3 1.6571 -1.00887e-006 -2.3218e-007 -1.54028e-006 -9.412 3.9771 -0.7758 141.664 -33.9916 156.157 -0.7531 -40.938 -7.10543e-015 84.9214 47.5451 -84.4857 -3.55271e-015 -40.1986 0 3.44511 6.01412 6.73336 0 -4.4182 9.239 2.91045e-006 3.89859e-007 -4.54823e-006 9.4119 3.9773 -0.7758 127.453 -46.1133 128.804 0.7532 -40.9383 0 44.1289 69.4233 -40.7786 3.55271e-015 -40.1986 -3.55271e-015 -16.6297 5.72985 7.55546 3.55271e-015 -4.4182 9.239 7.79142e-006 -1.70115e-007 3.01871e-006 
34.8251 27.659 16.6316 92.8597 89.9863 135.134 0 8.7983 -4.7612 8.52816 3.96164 3.61616 0 8.0291 0.4195 16.8566 8.41008 6.62824 -7.10543e-015 9.9351 -2.2114 16.8566 8.41008 6.62823 3.55271e-015 22.3885 -0.4656 16.5812 -0.00245085 -7.00164 -0.0001 12.643 3.4389 7.71471 -0.532548 -28.5837 2.2603 21.606 7.4023 0.643237 2.90104 22.8099 13.5163 -1.1332 -5.0146 75.129 -12.4719 -22.8689 -0.0995 -28.05 -0.2431 68.6733 -53.5094 43.1387 0.0679 -23.3996 -0.1402 -5.10138 2.80081 -10.5551 0.7932 -9.069 2.5189 1.59028e-015 -3.18055e-015 -2.22639e-014 -0.8272 -3.3923 0.5977 7.95139e-016 0 -2.22639e-014 -0.5649 -2.3158 0.4082 1.59028e-015 -1.59028e-015 -1.90833e-014 0.9159 -9.2044 0.2193 1.59028e-015 -3.18055e-015 -2.22639e-014 0.0117 -4.1944 -0.0248 -0.0127961 0.00232421 8.55689e-005 0.0071 -2.3249 -0.0142 7.95139e-016 -1.59028e-015 -3.18055e-015 0.6113 -8.7231 -2.0637 1.59028e-015 -3.18055e-015 -2.22639e-014 -0.1927 -3.8059 -0.2383 -0.0160571 0.00299586 0.00086091 -0.1091 -2.1688 -0.1362 -7.95139e-016 3.18055e-015 -3.18055e-015 -0.6151 -8.0947 -3.5641 1.59028e-015 -3.18055e-015 -2.22639e-014 -0.4882 -2.341 -0.6462 -0.0125677 0.00312308 0.00282507 -0.3575 -1.7167 -0.4742 1.59028e-015 -6.36111e-015 -0 -1.42 -1.8761 1.4223 1.59028e-015 -3.18055e-015 -2.22639e-014 -1.1471 -3.4929 2.6334 7.95139e-016 0 -2.22639e-014 -0.823 -2.3 1.6571 1.59028e-015 -1.59028e-015 -1.90833e-014 -2.2603 21.606 7.4023 23.1722 6.58293 26.5349 -13.5187 -1.1334 -5.0155 -51.1838 24.1685 -72.3562 0.0994 -28.0499 -0.2431 0.794675 -1.5145 -15.2522 -0.0679 -23.3996 -0.1402 29.6961 9.34256 -2.77446 -0.7932 -9.06911 2.5189 -3.18055e-015 3.18055e-015 1.59028e-015 0.8272 -3.3923 0.5977 6.17555e-007 9.71922e-007 2.29231e-006 0.565 -2.3158 0.4082 1.01243e-006 2.31835e-007 1.53792e-006 -0.916 -9.2044 0.2193 -3.18055e-015 3.18055e-015 1.59028e-015 -0.0117 -4.1944 -0.0248 0.0129655 0.0023226 -8.18673e-005 -0.0071 -2.3249 -0.0142 5.40614e-006 -1.93294e-007 8.76181e-008 -0.6113 -8.7231 -2.0637 -3.18055e-015 3.18055e-015 1.59028e-015 0.1927 -3.8059 -0.2383 0.0163296 0.00304689 -0.000870788 0.1091 -2.1688 -0.1362 -3.18055e-015 0 -0 0.6151 -8.0947 -3.564 -3.18055e-015 3.18055e-015 1.59028e-015 0.4882 -2.341 -0.6462 0.0146575 0.00368941 -0.00328535 0.3574 -1.7166 -0.4742 3.18055e-015 6.36111e-015 -1.59028e-015 1.4199 -1.8761 1.4221 -3.18055e-015 3.18055e-015 1.59028e-015 1.1472 -3.4929 2.6336 6.17555e-007 9.71922e-007 2.29231e-006 0.8229 -2.3 1.6571 1.01243e-006 2.31835e-007 1.53792e-006 -9.412 3.9771 -0.7758 141.912 -34.1543 156.041 -0.7531 -40.938 -3.55271e-015 84.9418 47.5462 -84.5113 3.55271e-015 -40.1986 7.10543e-015 3.1564 6.14571 6.98267 -3.55271e-015 -4.4182 9.239 9.07354e-006 3.19628e-006 -1.21418e-005 9.4119 3.9773 -0.7758 127.679 -46.1494 128.834 0.7532 -40.9383 3.55271e-015 44.1521 69.4313 -40.8021 -3.55271e-015 -40.1986 -3.55271e-015 -16.752 5.77861 7.70446 0 -4.4182 9.239 4.99076e-006 2.57145e-006 -7.40684e-006 
